<?xml version="1.0" encoding="UTF-8" standalone="no"?>
<!DOCTYPE svg PUBLIC "-//W3C//DTD SVG 1.1//EN"
 "http://www.w3.org/Graphics/SVG/1.1/DTD/svg11.dtd">
<!-- Generated by graphviz version 2.43.0 (0)
 -->
<!-- Title: SegmentationModel Pages: 1 -->
<svg width="4800pt" height="346pt"
 viewBox="0.00 0.00 1152.00 83.12" xmlns="http://www.w3.org/2000/svg" xmlns:xlink="http://www.w3.org/1999/xlink">
<g id="graph0" class="graph" transform="scale(0.43 0.43) rotate(0) translate(4 146)">
<title>SegmentationModel</title>
<polygon fill="white" stroke="transparent" points="-4,4 -4,-146 2075,-146 2075,4 -4,4"/>
<g id="clust1" class="cluster">
<title>cluster_backbone</title>
<path fill="white" stroke="#7b1fa2" stroke-dasharray="5,2" d="M306,-8C306,-8 781,-8 781,-8 787,-8 793,-14 793,-20 793,-20 793,-117 793,-117 793,-123 787,-129 781,-129 781,-129 306,-129 306,-129 300,-129 294,-123 294,-117 294,-117 294,-20 294,-20 294,-14 300,-8 306,-8"/>
<text text-anchor="middle" x="543.5" y="-113.8" font-family="Arial" font-size="14.00">Backbone</text>
</g>
<g id="clust2" class="cluster">
<title>cluster_decoder</title>
<path fill="white" stroke="#388e3c" stroke-dasharray="5,2" d="M985,-22C985,-22 1831,-22 1831,-22 1837,-22 1843,-28 1843,-34 1843,-34 1843,-122 1843,-122 1843,-128 1837,-134 1831,-134 1831,-134 985,-134 985,-134 979,-134 973,-128 973,-122 973,-122 973,-34 973,-34 973,-28 979,-22 985,-22"/>
<text text-anchor="middle" x="1408" y="-118.8" font-family="Arial" font-size="14.00">Decoder</text>
</g>
<!-- output -->
<g id="node1" class="node">
<title>output</title>
<path fill="#ffebee" stroke="#d32f2f" d="M2059,-109C2059,-109 1943,-109 1943,-109 1937,-109 1931,-103 1931,-97 1931,-97 1931,-47 1931,-47 1931,-41 1937,-35 1943,-35 1943,-35 2059,-35 2059,-35 2065,-35 2071,-41 2071,-47 2071,-47 2071,-97 2071,-97 2071,-103 2065,-109 2059,-109"/>
<text text-anchor="middle" x="2001" y="-95.4" font-family="Arial Bold" font-size="12.00" fill="#d32f2f">Output Mask</text>
<text text-anchor="middle" x="2001" y="-82.4" font-family="Arial Bold" font-size="12.00" fill="#d32f2f">[1, 2, 224, 224]</text>
<text text-anchor="middle" x="2001" y="-55.4" font-family="Arial Bold" font-size="12.00" fill="#d32f2f">Binary Segmentation</text>
<text text-anchor="middle" x="2001" y="-42.4" font-family="Arial Bold" font-size="12.00" fill="#d32f2f">(Background/Banner)</text>
</g>
<!-- upsample -->
<g id="node2" class="node">
<title>upsample</title>
<path fill="#e8f5e9" stroke="#388e3c" d="M1823,-102.5C1823,-102.5 1705,-102.5 1705,-102.5 1699,-102.5 1693,-96.5 1693,-90.5 1693,-90.5 1693,-53.5 1693,-53.5 1693,-47.5 1699,-41.5 1705,-41.5 1705,-41.5 1823,-41.5 1823,-41.5 1829,-41.5 1835,-47.5 1835,-53.5 1835,-53.5 1835,-90.5 1835,-90.5 1835,-96.5 1829,-102.5 1823,-102.5"/>
<text text-anchor="middle" x="1764" y="-88.9" font-family="Arial Bold" font-size="12.00" fill="#388e3c">Upsampling</text>
<text text-anchor="middle" x="1764" y="-61.9" font-family="Arial Bold" font-size="12.00" fill="#388e3c">Input: [1, 2, 14, 14]</text>
<text text-anchor="middle" x="1764" y="-48.9" font-family="Arial Bold" font-size="12.00" fill="#388e3c">Output: [1, 2, 224, 224]</text>
</g>
<!-- upsample&#45;&gt;output -->
<g id="edge7" class="edge">
<title>upsample&#45;&gt;output</title>
<path fill="none" stroke="#424242" stroke-width="2" d="M1835.11,-72C1835.11,-72 1918.76,-72 1918.76,-72"/>
<polygon fill="#424242" stroke="#424242" stroke-width="2" points="1918.76,-76.2 1930.76,-72 1918.76,-67.8 1918.76,-76.2"/>
<text text-anchor="middle" x="1883" y="-75.8" font-family="Times,serif" font-size="14.00"> &#160;</text>
</g>
<!-- conv2d_3 -->
<g id="node3" class="node">
<title>conv2d_3</title>
<path fill="#fff3e0" stroke="#f57c00" d="M1585,-103C1585,-103 1499,-103 1499,-103 1493,-103 1487,-97 1487,-91 1487,-91 1487,-51 1487,-51 1487,-45 1493,-39 1499,-39 1499,-39 1585,-39 1585,-39 1591,-39 1597,-45 1597,-51 1597,-51 1597,-91 1597,-91 1597,-97 1591,-103 1585,-103"/>
<text text-anchor="middle" x="1542" y="-91" font-family="Arial" font-size="10.00" fill="#f57c00">Conv2d 128→2 (1x1)</text>
<text text-anchor="middle" x="1542" y="-68" font-family="Arial" font-size="10.00" fill="#f57c00">Input: [1, 128, 14, 14]</text>
<text text-anchor="middle" x="1542" y="-57" font-family="Arial" font-size="10.00" fill="#f57c00">Output: [1, 2, 14, 14]</text>
<text text-anchor="middle" x="1542" y="-46" font-family="Arial" font-size="10.00" fill="#f57c00">Params: 258</text>
</g>
<!-- conv2d_3&#45;&gt;upsample -->
<g id="edge6" class="edge">
<title>conv2d_3&#45;&gt;upsample</title>
<path fill="none" stroke="#424242" stroke-width="2" d="M1597.16,-72C1597.16,-72 1680.74,-72 1680.74,-72"/>
<polygon fill="#424242" stroke="#424242" stroke-width="2" points="1680.74,-76.2 1692.74,-72 1680.74,-67.8 1680.74,-76.2"/>
<text text-anchor="middle" x="1645" y="-91.8" font-family="Times,serif" font-size="14.00"> &#160;</text>
</g>
<!-- conv2d_2 -->
<g id="node4" class="node">
<title>conv2d_2</title>
<path fill="#fff3e0" stroke="#f57c00" d="M1379,-103C1379,-103 1246,-103 1246,-103 1240,-103 1234,-97 1234,-91 1234,-91 1234,-51 1234,-51 1234,-45 1240,-39 1246,-39 1246,-39 1379,-39 1379,-39 1385,-39 1391,-45 1391,-51 1391,-51 1391,-91 1391,-91 1391,-97 1385,-103 1379,-103"/>
<text text-anchor="middle" x="1312.5" y="-91" font-family="Arial" font-size="10.00" fill="#f57c00">Conv2d 256→128 (3x3 + ReLU)</text>
<text text-anchor="middle" x="1312.5" y="-68" font-family="Arial" font-size="10.00" fill="#f57c00">Input: [1, 256, 14, 14]</text>
<text text-anchor="middle" x="1312.5" y="-57" font-family="Arial" font-size="10.00" fill="#f57c00">Output: [1, 128, 14, 14]</text>
<text text-anchor="middle" x="1312.5" y="-46" font-family="Arial" font-size="10.00" fill="#f57c00">Params: ~74K</text>
</g>
<!-- conv2d_2&#45;&gt;conv2d_3 -->
<g id="edge5" class="edge">
<title>conv2d_2&#45;&gt;conv2d_3</title>
<path fill="none" stroke="#424242" stroke-width="2" d="M1391.16,-71C1391.16,-71 1474.95,-71 1474.95,-71"/>
<polygon fill="#424242" stroke="#424242" stroke-width="2" points="1474.95,-75.2 1486.95,-71 1474.95,-66.8 1474.95,-75.2"/>
<text text-anchor="middle" x="1439" y="-91.8" font-family="Times,serif" font-size="14.00"> &#160;</text>
</g>
<!-- conv2d_1 -->
<g id="node5" class="node">
<title>conv2d_1</title>
<path fill="#fff3e0" stroke="#f57c00" d="M1126,-103C1126,-103 993,-103 993,-103 987,-103 981,-97 981,-91 981,-91 981,-51 981,-51 981,-45 987,-39 993,-39 993,-39 1126,-39 1126,-39 1132,-39 1138,-45 1138,-51 1138,-51 1138,-91 1138,-91 1138,-97 1132,-103 1126,-103"/>
<text text-anchor="middle" x="1059.5" y="-91" font-family="Arial" font-size="10.00" fill="#f57c00">Conv2d 384→256 (3x3 + ReLU)</text>
<text text-anchor="middle" x="1059.5" y="-68" font-family="Arial" font-size="10.00" fill="#f57c00">Input: [1, 384, 14, 14]</text>
<text text-anchor="middle" x="1059.5" y="-57" font-family="Arial" font-size="10.00" fill="#f57c00">Output: [1, 256, 14, 14]</text>
<text text-anchor="middle" x="1059.5" y="-46" font-family="Arial" font-size="10.00" fill="#f57c00">Params: ~353K</text>
</g>
<!-- conv2d_1&#45;&gt;conv2d_2 -->
<g id="edge4" class="edge">
<title>conv2d_1&#45;&gt;conv2d_2</title>
<path fill="none" stroke="#424242" stroke-width="2" d="M1138.16,-71C1138.16,-71 1221.88,-71 1221.88,-71"/>
<polygon fill="#424242" stroke="#424242" stroke-width="2" points="1221.88,-75.2 1233.88,-71 1221.88,-66.8 1221.88,-75.2"/>
<text text-anchor="middle" x="1186" y="-91.8" font-family="Times,serif" font-size="14.00"> &#160;</text>
</g>
<!-- reshape -->
<g id="node6" class="node">
<title>reshape</title>
<path fill="#fff3e0" stroke="#f57c00" d="M773,-97.5C773,-97.5 679,-97.5 679,-97.5 673,-97.5 667,-91.5 667,-85.5 667,-85.5 667,-56.5 667,-56.5 667,-50.5 673,-44.5 679,-44.5 679,-44.5 773,-44.5 773,-44.5 779,-44.5 785,-50.5 785,-56.5 785,-56.5 785,-85.5 785,-85.5 785,-91.5 779,-97.5 773,-97.5"/>
<text text-anchor="middle" x="726" y="-85.5" font-family="Arial" font-size="10.00" fill="#f57c00">Reshape</text>
<text text-anchor="middle" x="726" y="-62.5" font-family="Arial" font-size="10.00" fill="#f57c00">Input: [1, 384, 196]</text>
<text text-anchor="middle" x="726" y="-51.5" font-family="Arial" font-size="10.00" fill="#f57c00">Output: [1, 384, 14, 14]</text>
</g>
<!-- reshape&#45;&gt;conv2d_1 -->
<g id="edge3" class="edge">
<title>reshape&#45;&gt;conv2d_1</title>
<path fill="none" stroke="#424242" stroke-width="2" d="M785.24,-71C785.24,-71 968.76,-71 968.76,-71"/>
<polygon fill="#424242" stroke="#424242" stroke-width="2" points="968.76,-75.2 980.76,-71 968.76,-66.8 968.76,-75.2"/>
<text text-anchor="middle" x="883" y="-74.8" font-family="Times,serif" font-size="14.00"> &#160;Feature Map &#160;</text>
</g>
<!-- dinov2 -->
<g id="node7" class="node">
<title>dinov2</title>
<path fill="#f3e5f5" stroke="#7b1fa2" d="M409,-97.5C409,-97.5 314,-97.5 314,-97.5 308,-97.5 302,-91.5 302,-85.5 302,-85.5 302,-28.5 302,-28.5 302,-22.5 308,-16.5 314,-16.5 314,-16.5 409,-16.5 409,-16.5 415,-16.5 421,-22.5 421,-28.5 421,-28.5 421,-85.5 421,-85.5 421,-91.5 415,-97.5 409,-97.5"/>
<text text-anchor="middle" x="361.5" y="-84.7" font-family="Arial" font-size="11.00" fill="#7b1fa2">DINOv2&#45;small</text>
<text text-anchor="middle" x="361.5" y="-72.7" font-family="Arial" font-size="11.00" fill="#7b1fa2">(Backbone)</text>
<text text-anchor="middle" x="361.5" y="-47.7" font-family="Arial" font-size="11.00" fill="#7b1fa2">Input: [1, 3, 224, 224]</text>
<text text-anchor="middle" x="361.5" y="-35.7" font-family="Arial" font-size="11.00" fill="#7b1fa2">Output: [1, 384, 196]</text>
<text text-anchor="middle" x="361.5" y="-23.7" font-family="Arial" font-size="11.00" fill="#7b1fa2">Params: ~22M</text>
</g>
<!-- dinov2&#45;&gt;reshape -->
<g id="edge2" class="edge">
<title>dinov2&#45;&gt;reshape</title>
<path fill="none" stroke="#424242" stroke-width="2" d="M421.28,-71C421.28,-71 654.79,-71 654.79,-71"/>
<polygon fill="#424242" stroke="#424242" stroke-width="2" points="654.79,-75.2 666.79,-71 654.79,-66.8 654.79,-75.2"/>
<text text-anchor="middle" x="544" y="-77.8" font-family="Times,serif" font-size="14.00"> &#160;Feature Embedding &#160;</text>
</g>
<!-- input -->
<g id="node8" class="node">
<title>input</title>
<path fill="#e3f2fd" stroke="#1976d2" d="M89,-94C89,-94 12,-94 12,-94 6,-94 0,-88 0,-82 0,-82 0,-32 0,-32 0,-26 6,-20 12,-20 12,-20 89,-20 89,-20 95,-20 101,-26 101,-32 101,-32 101,-82 101,-82 101,-88 95,-94 89,-94"/>
<text text-anchor="middle" x="50.5" y="-80.4" font-family="Arial Bold" font-size="12.00" fill="#1976d2">Input Image</text>
<text text-anchor="middle" x="50.5" y="-67.4" font-family="Arial Bold" font-size="12.00" fill="#1976d2">[1, 3, 224, 224]</text>
<text text-anchor="middle" x="50.5" y="-40.4" font-family="Arial Bold" font-size="12.00" fill="#1976d2">RGB Image</text>
<text text-anchor="middle" x="50.5" y="-27.4" font-family="Arial Bold" font-size="12.00" fill="#1976d2">224x224 pixels</text>
</g>
<!-- input&#45;&gt;dinov2 -->
<g id="edge1" class="edge">
<title>input&#45;&gt;dinov2</title>
<path fill="none" stroke="#424242" stroke-width="2" d="M101.16,-57C101.16,-57 289.82,-57 289.82,-57"/>
<polygon fill="#424242" stroke="#424242" stroke-width="2" points="289.82,-61.2 301.82,-57 289.82,-52.8 289.82,-61.2"/>
<text text-anchor="middle" x="201.5" y="-60.8" font-family="Times,serif" font-size="14.00"> &#160;Forward Pass &#160;</text>
</g>
</g>
</svg>
